<svg width="512" height="512" xmlns="http://www.w3.org/2000/svg" xml:space="preserve" version="1.1" fill="#000000">

 <g>
  <title>Layer 1</title>
  <g stroke="null" id="svg_1">
   <g stroke="null" id="svg_2">
    <path stroke="null" id="svg_3" d="m509.99081,254.77448c-2.0479,-2.17654 -4.09694,-4.34963 -6.14713,-6.52616c-8.51548,-9.03808 -18.2404,-17.15501 -28.37536,-24.30369c-9.45041,-6.66284 -19.37059,-12.71694 -29.82715,-17.66382c-0.4778,-0.22512 -0.95905,-0.44794 -1.43916,-0.67076c9.85586,-14.12509 17.70287,-29.60203 23.79832,-45.74745c3.29983,-8.74175 5.78534,-17.67071 7.81141,-26.77771c0.32045,-1.43801 1.14168,-4.62528 1.14168,-4.62528s-1.01648,-0.33883 -1.6034,-0.51341c-2.86108,-0.86143 -5.72331,-1.71826 -8.58554,-2.57968c-11.89342,-3.5686 -24.37375,-5.73595 -36.72775,-6.86039c-11.51209,-1.0452 -23.13445,-1.32774 -34.66492,-0.38362c-0.52604,0.0425 -1.05324,0.09189 -1.57928,0.13898c1.47132,-17.16075 0.52949,-34.48804 -2.26612,-51.51785c-1.51152,-9.22185 -3.82473,-18.19791 -6.62609,-27.09701c-0.4399,-1.407 -1.322,-4.57589 -1.322,-4.57589s-1.04749,0.21593 -1.64819,0.3572c-2.90588,0.68684 -5.8152,1.37254 -8.72452,2.05938c-12.08408,2.85534 -23.97635,7.21875 -35.23576,12.42061c-10.49446,4.8527 -20.69834,10.41751 -30.21078,16.99995c-0.43531,0.30092 -0.86372,0.61563 -1.29673,0.92c-7.30604,-15.60099 -16.78632,-30.13727 -27.72413,-43.49052c-5.92087,-7.23023 -12.41027,-13.84828 -19.2833,-20.15392c-1.0831,-0.99811 -3.43537,-3.30443 -3.43537,-3.30443s-0.79825,0.71096 -1.24505,1.13249c-2.17654,2.0479 -4.35192,4.09809 -6.52616,6.14713c-9.03808,8.51318 -17.15501,18.23811 -24.30369,28.37536c-6.66514,9.44697 -12.71694,19.37059 -17.66382,29.82945c-0.22512,0.4778 -0.44679,0.95791 -0.67076,1.43801c-14.12623,-9.85586 -29.60203,-17.70287 -45.74745,-23.79947c-8.74405,-3.29983 -17.67301,-5.78763 -26.77771,-7.81141c-1.43801,-0.32045 -4.62758,-1.14168 -4.62758,-1.14168s-0.33653,1.01648 -0.51341,1.6034c-0.85913,2.86223 -1.71826,5.72446 -2.57739,8.58554c-3.5709,11.89342 -5.73595,24.37375 -6.86039,36.72545c-1.04749,11.51439 -1.32774,23.1356 -0.38362,34.66607c0.0425,0.52604 0.09189,1.05324 0.13898,1.58043c-17.16075,-1.47246 -34.48804,-0.53064 -51.51785,2.26498c-9.22185,1.51152 -18.19791,3.82243 -27.09701,6.62264c-1.407,0.4445 -4.57819,1.32545 -4.57819,1.32545s0.21593,1.04749 0.3572,1.64705c0.68684,2.90702 1.37484,5.81635 2.05938,8.72452c2.85534,12.08408 7.21875,23.97635 12.42291,35.23576c4.8504,10.49446 10.41521,20.69834 16.99995,30.21307c0.30092,0.43301 0.61448,0.86143 0.91885,1.29444c-15.60099,7.30604 -30.13842,16.78632 -43.49166,27.72298c-7.23023,5.92201 -13.84828,12.41257 -20.15392,19.2856c-0.99581,1.0854 -3.30213,3.43422 -3.30213,3.43422s0.71096,0.80055 1.13249,1.24964c2.0479,2.17424 4.09809,4.34848 6.14484,6.52616c8.51548,9.03578 18.2404,17.15616 28.37536,24.30369c9.44927,6.66284 19.37059,12.71579 29.82945,17.66382c0.4778,0.22512 0.95791,0.44794 1.43801,0.66961c-9.85701,14.12623 -17.70287,29.60203 -23.79717,45.7463c-3.30213,8.7429 -5.78763,17.67301 -7.81141,26.77656c-0.32045,1.43801 -1.14168,4.62528 -1.14168,4.62528s1.01419,0.33883 1.6034,0.51571c2.85993,0.85913 5.72216,1.71826 8.58554,2.57968c11.89227,3.5663 24.37375,5.73595 36.72545,6.86039c11.51439,1.0452 23.1356,1.32774 34.66607,0.38132c0.52604,-0.0425 1.05209,-0.09189 1.57928,-0.13898c-1.47246,17.16075 -0.52949,34.48804 2.26383,51.51785c1.51381,9.2207 3.82473,18.2002 6.62494,27.09701c0.4422,1.407 1.32315,4.57589 1.32315,4.57589s1.04979,-0.21478 1.64934,-0.35606c2.90702,-0.68684 5.8152,-1.37484 8.72452,-2.05938c12.08293,-2.85534 23.97635,-7.21875 35.23576,-12.41946c10.49446,-4.85385 20.69834,-10.41751 30.21078,-17.0034c0.43301,-0.30092 0.86143,-0.61448 1.29444,-0.91885c7.30604,15.60099 16.78747,30.13842 27.72528,43.49166c5.91972,7.23023 12.41257,13.84828 19.2856,20.15392c1.0831,0.99581 3.43422,3.30213 3.43422,3.30213s0.80055,-0.71096 1.2462,-1.13249c2.17768,-2.04675 4.34963,-4.09464 6.52731,-6.14484c9.03808,-8.51548 17.15616,-18.2404 24.30599,-28.37536c6.66054,-9.44927 12.7135,-19.37059 17.66153,-29.82945c0.22512,-0.4778 0.44794,-0.95791 0.66961,-1.43801c14.12623,9.85586 29.60203,17.70287 45.7486,23.79717c8.74175,3.30213 17.67301,5.78763 26.77656,7.81141c1.43801,0.32045 4.62528,1.14397 4.62528,1.14397s0.33883,-1.01648 0.51341,-1.60455c0.86143,-2.85993 1.71826,-5.72216 2.57968,-8.58669c3.56745,-11.89227 5.73595,-24.37375 6.86039,-36.72545c1.0452,-11.51439 1.32774,-23.13675 0.38362,-34.66377c-0.0425,-0.52719 -0.09189,-1.05439 -0.13898,-1.58158c17.16075,1.47132 34.48804,0.52949 51.51785,-2.26498c9.2207,-1.51266 18.19791,-3.82473 27.09701,-6.62609c1.407,-0.4422 4.57475,-1.322 4.57475,-1.322s-0.21593,-1.04979 -0.3572,-1.64819c-0.68684,-2.90932 -1.37254,-5.8152 -2.05938,-8.72682c-2.85534,-12.08293 -7.21875,-23.97405 -12.42061,-35.23576c-4.8527,-10.49446 -10.41636,-20.69834 -16.99995,-30.21078c-0.30092,-0.43301 -0.61448,-0.86143 -0.92,-1.29444c15.60214,-7.30604 30.13727,-16.78747 43.49052,-27.72642c7.23023,-5.91857 13.84828,-12.41027 20.15621,-19.2856c0.99581,-1.08425 3.30213,-3.43422 3.30213,-3.43422s-0.70867,-0.79596 -1.13019,-1.2416zm-77.27793,36.8897c-5.172,-5.99782 -10.7839,-11.61087 -16.95171,-16.48309c-5.74973,-4.53569 -11.62695,-8.70844 -18.02103,-12.29082c-4.9308,-2.76001 -10.04767,-4.93999 -15.3598,-6.84661c2.48091,2.33963 5.00776,4.61839 7.4565,6.99478c3.48246,3.37679 6.74439,6.9385 9.99254,10.545c7.21645,8.01126 13.5152,16.85868 19.17074,26.09201c-8.13875,4.38408 -16.58302,8.25016 -25.24552,11.43399c-4.70224,1.72745 -9.44467,3.26193 -14.25028,4.66893c-4.62528,1.36105 -9.34934,2.29714 -14.0332,3.41584c20.59152,3.77534 41.70909,1.06587 61.41162,-5.71298c0.92,1.7263 1.83082,3.45604 2.71521,5.19267c4.75048,9.3034 8.88073,18.93988 12.57107,28.705c2.50158,6.61575 4.86304,13.30731 6.90289,20.085c-18.92265,4.52191 -38.39891,7.10159 -57.85106,7.77695c-1.47821,-7.77925 -3.54563,-15.44479 -6.4515,-22.74738c-2.71177,-6.80526 -5.71757,-13.35784 -9.4642,-19.65544c-2.89094,-4.85729 -6.23213,-9.30455 -9.87883,-13.61168c0.97973,3.26997 2.02952,6.50549 2.96101,9.78695c1.32774,4.66663 2.37064,9.3838 3.38023,14.12853c2.24545,10.5473 3.28605,21.35647 3.5663,32.18287c-9.24482,-0.27106 -18.49309,-1.14627 -27.58974,-2.72096c-4.9354,-0.85453 -9.80992,-1.89629 -14.67755,-3.08046c-4.68386,-1.13708 -9.24482,-2.68535 -13.85747,-4.06019c15.94786,13.56573 35.59067,21.78029 56.04321,25.76008c-0.06777,1.95371 -0.14702,3.90513 -0.24809,5.85425c-0.53753,10.43129 -1.77798,20.84306 -3.46523,31.14571c-1.14168,6.97755 -2.443,13.95395 -4.06478,20.84535c-18.64814,-5.54758 -36.807,-13.04773 -53.98957,-22.19033c2.6084,-7.47947 4.65285,-15.14961 5.78534,-22.92886c1.05439,-7.24861 1.72745,-14.42486 1.63326,-21.75157c-0.07236,-5.65095 -0.74657,-11.17441 -1.75157,-16.72659c-0.78562,3.32166 -1.49658,6.64676 -2.327,9.95578c-1.18188,4.70798 -2.63596,9.31144 -4.13599,13.92409c-3.3274,10.25671 -7.82979,20.13899 -12.99949,29.65487c-7.87228,-4.85729 -15.44249,-10.23718 -22.5349,-16.15116c-3.84885,-3.20795 -7.54609,-6.55028 -11.17097,-10.00747c-3.4905,-3.32855 -6.66514,-6.94883 -9.97416,-10.44852c7.02579,19.7232 19.93339,36.65998 35.65613,50.33024c-1.03486,1.65968 -2.08235,3.31132 -3.14133,4.94688c-5.68082,8.76472 -11.96118,17.16075 -18.57234,25.24092c-4.47827,5.47407 -9.09436,10.8666 -13.94706,16.02022c-13.37852,-14.13198 -25.35348,-29.71 -35.66762,-46.22525c5.99782,-5.17085 11.61202,-10.78275 16.48309,-16.94941c4.53569,-5.75088 8.70844,-11.62925 12.29082,-18.02218c2.76116,-4.9308 4.93999,-10.04997 6.84661,-15.3598c-2.33963,2.48091 -4.61839,5.00661 -6.99478,7.4565c-3.37794,3.48361 -6.9385,6.74554 -10.54385,9.99139c-8.01126,7.2176 -16.85868,13.5152 -26.09316,19.16959c-4.38408,-8.13875 -8.24901,-16.58187 -11.43284,-25.24437c-1.72745,-4.70224 -3.26193,-9.44697 -4.67008,-14.25143c-1.35761,-4.62643 -2.29714,-9.35049 -3.41469,-14.03435c-3.77534,20.59382 -1.06587,41.71138 5.71183,61.41162c-1.7263,0.92 -3.45604,1.83082 -5.19153,2.71521c-9.3034,4.75048 -18.93988,8.88302 -28.705,12.57337c-6.61575,2.50158 -13.30731,4.86304 -20.08615,6.90289c-4.52076,-18.92495 -7.10159,-38.40121 -7.7758,-57.85221c7.77925,-1.4805 15.44479,-3.54678 22.74738,-6.4538c6.80411,-2.70832 13.35669,-5.71642 19.65544,-9.46075c4.85729,-2.89094 9.3034,-6.23328 13.61053,-9.88113c-3.26882,0.98088 -6.50549,2.02952 -9.7858,2.96101c-4.66778,1.32774 -9.3838,2.37294 -14.12853,3.38253c-10.5473,2.2443 -21.35647,3.28375 -32.18287,3.5663c0.27221,-9.24482 1.14627,-18.49309 2.72096,-27.58974c0.85453,-4.9354 1.89743,-9.80992 3.08046,-14.67755c1.13708,-4.68616 2.68535,-9.24482 4.06019,-13.85747c-13.56573,15.94557 -21.78029,35.59067 -25.76008,56.04321c-1.95371,-0.06777 -3.90513,-0.14702 -5.8531,-0.24924c-10.43129,-0.53868 -20.84421,-1.77913 -31.14571,-3.46408c-6.9787,-1.14168 -13.9551,-2.443 -20.8465,-4.06708c5.54758,-18.64814 13.04888,-36.80355 22.19148,-53.98842c7.47832,2.6084 15.14961,4.6517 22.92771,5.78419c7.24861,1.05439 14.42486,1.72974 21.75272,1.63326c5.65095,-0.07351 11.17441,-0.74427 16.72659,-1.74927c-3.32051,-0.78562 -6.64676,-1.49658 -9.95578,-2.327c-4.70453,-1.18417 -9.31144,-2.63826 -13.92409,-4.13599c-10.25671,-3.32855 -20.13899,-7.83208 -29.65487,-13.00064c4.85729,-7.87113 10.23718,-15.44134 16.15116,-22.53605c3.20795,-3.84655 6.55028,-7.54264 10.00747,-11.17097c3.32625,-3.48705 6.94769,-6.66284 10.44737,-9.97186c-19.7232,7.02579 -36.65998,19.93339 -50.33024,35.65384c-1.65968,-1.03486 -3.31132,-2.08235 -4.94688,-3.14133c-8.76242,-5.67852 -17.16075,-11.96118 -25.23977,-18.57234c-5.47407,-4.47597 -10.8666,-9.09206 -16.02137,-13.94476c14.13198,-13.37966 29.7123,-25.35463 46.22525,-35.66762c5.172,5.99782 10.7839,11.61087 16.95286,16.4808c5.74743,4.53799 11.62695,8.71074 18.02218,12.29082c4.9285,2.76116 10.04767,4.94229 15.3575,6.84661c-2.48091,-2.33963 -5.00661,-4.61839 -7.4565,-6.99248c-3.48131,-3.38023 -6.74554,-6.94079 -9.99139,-10.54385c-7.2176,-8.01126 -13.5152,-16.85868 -19.17074,-26.09316c8.13875,-4.38523 16.58072,-8.25131 25.24437,-11.43514c4.70224,-1.72745 9.44697,-3.25964 14.25143,-4.67008c4.62528,-1.35761 9.35049,-2.29714 14.03435,-3.41239c-20.59152,-3.77764 -41.71138,-1.06817 -61.41047,5.71183c-0.92,-1.72745 -1.83082,-3.45719 -2.71636,-5.19267c-4.74933,-9.3011 -8.88302,-18.93988 -12.57337,-28.70271c-2.50158,-6.61575 -4.86304,-13.30731 -6.90289,-20.08845c18.92495,-4.52076 38.40121,-7.10045 57.85221,-7.7758c1.47936,7.77925 3.54678,15.44594 6.4538,22.74968c2.70947,6.80182 5.71642,13.35669 9.4642,19.65544c2.8875,4.85729 6.22983,9.3034 9.87768,13.60823c-0.98088,-3.26653 -2.02837,-6.50319 -2.96101,-9.7858c-1.32545,-4.66778 -2.37294,-9.3815 -3.38253,-14.12623c-2.24545,-10.54845 -3.28605,-21.35762 -3.56745,-32.18401c9.24482,0.27221 18.49309,1.14627 27.59089,2.72096c4.93769,0.85453 9.80992,1.89973 14.67755,3.08276c4.68386,1.13478 9.24482,2.68535 13.85862,4.06019c-15.94557,-13.56803 -35.59182,-21.78029 -56.04321,-25.76237c0.06662,-1.95371 0.14702,-3.90513 0.24809,-5.8531c0.53868,-10.42899 1.77913,-20.84191 3.46408,-31.14571c1.14168,-6.9787 2.443,-13.9528 4.06708,-20.8465c18.64929,5.54758 36.80585,13.05117 53.98957,22.19262c-2.6084,7.47832 -4.65285,15.15076 -5.78534,22.92886c-1.05439,7.24631 -1.72974,14.42486 -1.63326,21.75272c0.07351,5.65095 0.74427,11.17212 1.74927,16.72429c0.78792,-3.31821 1.49658,-6.64676 2.32815,-9.95349c1.18647,-4.70683 2.63826,-9.31144 4.13484,-13.92638c3.32855,-10.25786 7.83208,-20.14013 13.00179,-29.65487c7.86999,4.85729 15.4402,10.23948 22.53375,16.15116c3.85,3.21025 7.54609,6.55028 11.17212,10.00977c3.4882,3.3251 6.66514,6.94769 9.97186,10.44507c-7.02349,-19.72091 -19.93224,-36.65769 -35.65269,-50.33024c1.03371,-1.65968 2.0812,-3.30902 3.14018,-4.94458c5.67967,-8.76472 11.96118,-17.16305 18.57234,-25.24207c4.47712,-5.47407 9.09206,-10.8643 13.94706,-16.02137c13.37737,14.13313 25.35233,29.71459 35.66532,46.2264c-5.99782,5.172 -11.61087,10.7839 -16.4808,16.95171c-4.53799,5.74973 -8.71074,11.62695 -12.29082,18.02218c-2.76001,4.9308 -4.94344,10.04767 -6.84661,15.3598c2.33963,-2.48091 4.61839,-5.0089 6.99248,-7.4565c3.37909,-3.48361 6.94079,-6.74554 10.545,-9.99369c8.01126,-7.21645 16.85868,-13.51405 26.09431,-19.17074c4.38408,8.13875 8.25016,16.58072 11.43399,25.24437c1.72745,4.70453 3.25964,9.44697 4.66893,14.25372c1.35876,4.62298 2.29714,9.34819 3.41239,14.03205c3.77764,-20.58922 1.06932,-41.70909 -5.71183,-61.41047c1.72745,-0.92 3.45719,-1.83082 5.19267,-2.71636c9.3034,-4.74933 18.93873,-8.88073 28.70156,-12.57107c6.6169,-2.50158 13.3096,-4.86304 20.08845,-6.90289c4.52191,18.92495 7.10045,38.39891 7.77695,57.85106c-7.77925,1.47936 -15.44479,3.54678 -22.74853,6.45495c-6.80641,2.70947 -13.35899,5.71412 -19.65774,9.4619c-4.85729,2.8898 -9.3034,6.23213 -13.60823,9.87768c3.26653,-0.97858 6.50319,-2.02837 9.78695,-2.95871c4.66663,-1.32774 9.3815,-2.37294 14.12623,-3.38253c10.5473,-2.24545 21.35762,-3.28605 32.18401,-3.56745c-0.27106,9.24482 -1.14627,18.49309 -2.72096,27.59089c-0.85339,4.9354 -1.89858,9.80992 -3.08276,14.67755c-1.13708,4.68386 -2.68535,9.24482 -4.06019,13.85862c13.56803,-15.94786 21.78029,-35.59182 25.76352,-56.04321c1.95257,0.06662 3.90398,0.14702 5.8531,0.24809c10.43129,0.53868 20.84191,1.77683 31.14341,3.46408c6.97985,1.14168 13.95625,2.443 20.84765,4.06708c-5.54758,18.64814 -13.05003,36.8047 -22.19148,53.98728c-7.47947,-2.6084 -15.14961,-4.65055 -22.92771,-5.78304c-7.24861,-1.05668 -14.42716,-1.72974 -21.75387,-1.63326c-5.65095,0.07236 -11.17327,0.74427 -16.72544,1.74927c3.31936,0.78562 6.64676,1.49658 9.95349,2.32815c4.70798,1.18417 9.31144,2.63596 13.92638,4.13484c10.25786,3.32855 20.13784,7.83208 29.65487,13.00179c-4.85729,7.87113 -10.23948,15.44134 -16.15116,22.53375c-3.2091,3.8477 -6.54798,7.54609 -10.00862,11.16982c-3.32625,3.4905 -6.94769,6.66514 -10.44507,9.97416c19.72091,-7.02579 36.65654,-19.93454 50.33024,-35.65499c1.65738,1.03371 3.30902,2.0812 4.94458,3.14018c8.76472,5.68196 17.16305,11.96118 25.24322,18.57234c5.47407,4.47941 10.8643,9.09436 16.02022,13.94706c-14.13313,13.37507 -29.71459,25.35004 -46.2264,35.66417z"/>
    <path stroke="null" id="svg_4" d="m307.38692,250.45242c-0.57658,-5.39367 -1.98702,-10.53581 -4.09235,-15.30466c11.31913,-6.11383 22.3695,-12.74336 33.05233,-19.90468c10.14874,-6.80411 20.15392,-14.05158 29.09322,-22.40396c-14.48229,4.41509 -28.40408,10.96308 -41.79867,17.96475c-8.80033,4.60346 -17.45478,9.49865 -25.91743,14.70281c-3.13444,-4.28416 -6.91553,-8.06639 -11.19509,-11.20657c6.74669,-10.95734 12.99949,-22.22364 18.67456,-33.76904c5.38678,-10.96767 10.42899,-22.24661 13.9953,-33.95051c-10.33481,11.06645 -19.11906,23.6984 -27.21531,36.45784c-5.31902,8.38569 -10.36353,16.94826 -15.09103,25.68542c-4.76656,-2.10877 -9.90869,-3.52381 -15.30007,-4.10498c0.3618,-12.86166 0.14817,-25.74629 -0.71211,-38.58269c-0.81893,-12.18745 -2.09269,-24.47713 -4.85729,-36.39581c-3.41929,14.74991 -4.70683,30.08214 -5.33854,45.18006c-0.41578,9.92362 -0.50422,19.86333 -0.22856,29.79155c-5.39482,0.57543 -10.53696,1.98702 -15.30352,4.09235c-6.11497,-11.32028 -12.74336,-22.3695 -19.90697,-33.05578c-6.80182,-10.14645 -14.05158,-20.15162 -22.40396,-29.09092c4.41509,14.48229 10.96538,28.40408 17.96704,41.79753c4.60231,8.80262 9.49636,17.45593 14.70052,25.91858c-4.28301,3.13559 -8.06409,6.91438 -11.20428,11.19509c-10.95734,-6.74669 -22.22364,-13.00179 -33.77134,-18.67686c-10.96538,-5.38563 -22.24661,-10.4267 -33.94821,-13.99185c11.06186,10.33481 23.6984,19.11791 36.45554,27.21301c8.38684,5.32131 16.95056,10.36812 25.68772,15.09562c-2.10992,4.76541 -3.52381,9.9064 -4.10498,15.29892c-12.86166,-0.3641 -25.74629,-0.14931 -38.58269,0.71096c-12.18975,0.81893 -24.47942,2.09269 -36.39581,4.85729c14.74761,3.41929 30.07984,4.70683 45.18006,5.34084c9.92477,0.41463 19.86333,0.50307 29.7927,0.22627c0.57543,5.39367 1.98702,10.53581 4.09235,15.30237c-11.32028,6.11497 -22.3695,12.74451 -33.05578,19.90697c-10.14874,6.80526 -20.15392,14.05158 -29.09092,22.40511c14.47999,-4.41395 28.40408,-10.96652 41.79753,-17.9659c8.80262,-4.60346 17.45593,-9.49865 25.91858,-14.70281c3.13559,4.28301 6.91438,8.06409 11.19509,11.20313c-6.74898,10.95848 -13.00293,22.22478 -18.67686,33.77248c-5.38563,10.96767 -10.4267,22.24661 -13.99415,33.94821c10.33711,-11.06186 19.11791,-23.6961 27.21531,-36.45554c5.32131,-8.38569 10.36582,-16.95056 15.09333,-25.68657c4.76656,2.10877 9.9064,3.52266 15.29892,4.10383c-0.36295,12.86281 -0.14702,25.74629 0.71326,38.58154c0.81893,12.1909 2.09269,24.47942 4.855,36.39581c3.42158,-14.74761 4.70913,-30.07869 5.34084,-45.18006c0.41463,-9.92477 0.50307,-19.86333 0.22856,-29.7927c5.39253,-0.57428 10.53466,-1.98587 15.30122,-4.0912c6.11497,11.31913 12.74566,22.37065 19.90697,33.05233c6.80641,10.15104 14.05043,20.15621 22.40396,29.09552c-4.41395,-14.48229 -10.96308,-28.40638 -17.96475,-41.79982c-4.60461,-8.80262 -9.4998,-17.45478 -14.70396,-25.91858c4.28301,-3.13559 8.06524,-6.91438 11.20543,-11.19394c10.95734,6.74784 22.22593,13.00179 33.77019,18.67571c10.96767,5.38563 22.24661,10.4267 33.95051,13.99415c-11.06415,-10.33481 -23.6984,-19.11791 -36.45669,-27.21416c-8.38684,-5.32246 -16.95056,-10.36582 -25.68542,-15.09448c2.10877,-4.76541 3.52381,-9.9064 4.10498,-15.29777c12.86051,0.3618 25.74629,0.14702 38.58039,-0.71326c12.1886,-0.81893 24.47827,-2.09269 36.39581,-4.855c-14.74991,-3.41929 -30.08099,-4.70913 -45.18006,-5.34084c-9.92018,-0.41234 -19.85874,-0.49963 -29.7904,-0.22512z"/>
   </g>
  </g>
 </g>
</svg>